<?xml version="1.0" standalone="no"?>
<!DOCTYPE svg PUBLIC "-//W3C//DTD SVG 20010904//EN"
 "http://www.w3.org/TR/2001/REC-SVG-20010904/DTD/svg10.dtd">
<svg version="1.0" xmlns="http://www.w3.org/2000/svg"
 width="512.000000pt" height="512.000000pt" viewBox="0 0 512.000000 512.000000"
 preserveAspectRatio="xMidYMid meet">

<g transform="translate(0.000000,512.000000) scale(0.100000,-0.100000)"
fill="#fff" stroke="none">
<path d="M729 5091 c-34 -34 -37 -68 -9 -103 22 -29 258 -168 284 -168 25 0
73 27 80 45 11 30 6 73 -11 94 -25 29 -263 161 -291 161 -13 0 -37 -13 -53
-29z"/>
<path d="M3008 5110 c-203 -34 -413 -179 -545 -375 -83 -123 -89 -151 -44
-196 56 -55 98 -36 171 78 60 92 170 205 245 249 74 43 170 74 251 81 64 5 74
4 74 -10 0 -39 -45 -128 -101 -202 -114 -150 -150 -247 -150 -410 0 -158 40
-272 140 -400 65 -83 77 -104 101 -174 35 -105 24 -246 -28 -346 -11 -22 -44
-69 -73 -105 -88 -110 -139 -239 -139 -358 0 -53 4 -67 24 -87 29 -29 102 -39
235 -33 178 9 331 80 477 220 167 160 280 373 336 631 32 147 32 447 0 589
-87 393 -304 688 -592 805 -116 46 -262 63 -382 43z m405 -247 c303 -184 478
-647 412 -1088 -39 -258 -140 -463 -303 -616 -117 -110 -251 -169 -384 -169
l-57 0 20 57 c21 61 48 107 112 187 82 105 127 239 127 380 0 150 -42 266
-146 402 -29 39 -66 97 -81 130 -26 54 -28 69 -28 179 0 109 2 125 27 178 15
31 52 90 83 129 62 79 93 135 119 216 10 28 22 52 28 52 6 0 38 -17 71 -37z"/>
<path d="M4185 5049 c-135 -79 -155 -97 -155 -143 0 -43 24 -74 65 -82 29 -5
50 3 160 67 132 76 165 105 165 146 0 34 -51 83 -87 82 -16 0 -80 -30 -148
-70z"/>
<path d="M1663 4581 c-220 -35 -390 -156 -482 -343 -69 -140 -86 -278 -56
-451 43 -246 145 -438 329 -622 108 -108 189 -167 311 -228 340 -172 698 -152
916 51 154 142 223 337 199 559 -43 397 -297 749 -675 934 -169 82 -392 123
-542 100z m297 -191 c228 -55 470 -234 608 -448 115 -181 169 -421 132 -597
-9 -46 -15 -56 -28 -52 -10 3 -47 17 -83 31 -36 13 -104 30 -150 36 -112 14
-192 54 -258 125 -57 63 -85 128 -100 236 -26 184 -106 313 -254 410 -69 45
-121 63 -244 83 -104 18 -176 43 -170 60 2 6 26 28 53 49 50 38 127 72 199 87
58 13 197 3 295 -20z m-564 -304 c33 -14 104 -32 156 -40 121 -18 174 -41 243
-107 69 -65 100 -130 119 -252 9 -53 25 -119 35 -147 66 -173 234 -311 414
-340 101 -16 155 -29 195 -46 l35 -14 -29 -31 c-38 -39 -149 -94 -221 -110
-82 -17 -251 -6 -338 21 -203 64 -422 225 -548 402 -60 84 -122 215 -149 315
-35 133 -25 397 15 379 7 -2 39 -16 73 -30z"/>
<path d="M490 4093 c-61 -23 -81 -100 -37 -141 22 -21 33 -22 188 -22 160 0
166 1 187 23 31 33 29 87 -4 118 -24 23 -32 24 -172 26 -81 1 -154 0 -162 -4z"/>
<path d="M4330 4093 c-61 -23 -81 -100 -37 -141 22 -21 33 -22 188 -22 160 0
166 1 187 23 31 33 29 87 -4 118 -24 23 -32 24 -172 26 -81 1 -154 0 -162 -4z"/>
<path d="M853 3124 c-129 -76 -153 -98 -153 -145 0 -28 53 -79 81 -79 30 0
286 146 299 170 29 55 -9 130 -67 130 -17 0 -81 -31 -160 -76z"/>
<path d="M4055 3175 c-27 -26 -33 -72 -15 -105 13 -24 269 -170 299 -170 12 0
36 13 52 29 50 50 34 102 -44 148 -229 136 -249 142 -292 98z"/>
<path d="M217 2949 c-138 -33 -229 -158 -213 -292 8 -70 359 -843 431 -952 39
-58 135 -161 344 -370 l290 -289 -22 -36 c-22 -35 -22 -40 -22 -425 0 -390 0
-390 23 -427 13 -20 40 -47 60 -60 l37 -23 520 0 c518 0 520 0 555 22 20 12
46 40 58 61 22 39 22 46 22 427 0 381 0 388 -22 427 -24 42 -65 72 -114 82
l-32 7 -5 167 c-5 198 -21 263 -100 417 -42 82 -66 115 -137 185 -53 53 -106
95 -140 112 -30 15 -107 51 -170 81 -129 62 -251 140 -355 229 -95 81 -141
106 -224 123 -82 18 -160 9 -237 -24 -26 -12 -50 -21 -54 -21 -4 0 -51 104
-105 231 -78 183 -107 239 -138 271 -64 66 -166 98 -250 77z m124 -198 c14
-16 67 -125 119 -247 107 -253 138 -316 193 -399 22 -33 150 -171 286 -307
219 -221 249 -248 277 -248 18 0 40 3 49 6 24 10 47 62 40 93 -4 18 -76 97
-211 231 -197 196 -304 312 -304 329 0 4 17 15 38 24 106 45 170 28 297 -79
120 -101 253 -185 394 -251 64 -29 132 -61 151 -71 19 -9 65 -46 101 -82 52
-51 76 -86 112 -160 59 -124 77 -208 77 -364 l0 -126 -353 0 -353 0 -330 333
c-242 242 -340 348 -365 392 -19 33 -115 237 -213 453 -153 337 -177 397 -172
426 7 36 28 60 66 75 35 13 71 3 101 -28z m1789 -2166 l0 -345 -467 2 -468 3
-3 330 c-1 181 0 336 3 342 3 10 105 13 470 13 l465 0 0 -345z"/>
<path d="M1819 641 c-17 -18 -29 -40 -29 -56 0 -16 12 -38 29 -56 27 -27 35
-29 101 -29 66 0 74 2 101 29 17 18 29 40 29 56 0 16 -12 38 -29 56 -27 27
-35 29 -101 29 -66 0 -74 -2 -101 -29z"/>
<path d="M4772 2946 c-54 -18 -112 -57 -141 -96 -12 -17 -65 -130 -117 -253
-52 -122 -97 -224 -100 -226 -2 -3 -24 5 -48 16 -103 51 -237 50 -340 -2 -28
-13 -85 -53 -126 -89 -109 -92 -229 -170 -360 -233 -63 -30 -140 -66 -170 -81
-74 -36 -206 -168 -257 -257 -91 -158 -123 -286 -123 -489 l0 -134 -32 -7
c-51 -11 -92 -40 -116 -83 -22 -39 -22 -46 -22 -427 0 -381 0 -388 22 -427 12
-21 38 -49 58 -61 35 -22 37 -22 555 -22 l520 0 37 23 c20 13 47 40 60 60 23
37 23 37 23 427 0 385 0 390 -22 425 l-22 36 290 289 c208 208 305 313 344
370 34 51 117 221 231 470 199 440 204 452 204 509 0 96 -67 203 -153 245 -56
27 -141 34 -195 17z m138 -181 c20 -12 42 -68 37 -94 -9 -42 -355 -799 -394
-861 -20 -32 -172 -193 -361 -382 l-327 -328 -353 0 -354 0 5 158 c4 127 9
169 27 222 34 101 89 198 149 262 48 53 73 68 225 142 181 88 335 186 451 286
77 66 150 96 208 85 42 -8 107 -36 107 -46 0 -16 -60 -81 -276 -299 -123 -124
-228 -237 -233 -252 -20 -53 23 -108 83 -108 26 0 64 34 268 238 314 312 320
320 492 723 95 221 120 263 161 271 20 4 65 -5 85 -17z m-985 -2180 l0 -340
-467 -3 -468 -2 0 345 0 345 468 -2 467 -3 0 -340z"/>
<path d="M3099 641 c-38 -38 -38 -74 0 -112 27 -27 35 -29 101 -29 66 0 74 2
101 29 17 18 29 40 29 56 0 16 -12 38 -29 56 -27 27 -35 29 -101 29 -66 0 -74
-2 -101 -29z"/>
</g>
</svg>
