<?xml version="1.0" encoding="utf-8"?>
<!-- Svg Vector Icons : http://www.onlinewebfonts.com/icon -->
<!DOCTYPE svg PUBLIC "-//W3C//DTD SVG 1.1//EN" "http://www.w3.org/Graphics/SVG/1.1/DTD/svg11.dtd">
<svg fill="#111111" version="1.1" xmlns="http://www.w3.org/2000/svg" xmlns:xlink="http://www.w3.org/1999/xlink" x="0px" y="0px" viewBox="0 0 1000 1000" enable-background="new 0 0 1000 1000" xml:space="preserve">
<metadata> Svg Vector Icons : http://www.onlinewebfonts.com/icon </metadata>
<g><g transform="translate(0.000000,511.000000) scale(0.100000,-0.100000)"><path d="M5609.6,4871.5c-277-311.6-459.7-617.4-525.1-880.9c-65.4-261.6,0-563.5,200-917.4c253.9-453.9,319.3-636.6,319.3-900.1c-1.9-209.6-40.4-367.4-142.4-584.7c-42.3-88.5-75-163.5-71.2-167.3c9.6-11.5,275,307.7,359.7,434.7c46.2,69.2,109.6,190.4,142.3,269.3c48.1,121.2,55.8,171.2,55.8,307.7c-1.9,201.9-38.5,309.7-207.7,617.4c-163.5,296.2-215.4,419.3-261.6,603.9c-84.6,353.9-23.1,721.3,202,1207.9c36.5,80.8,65.4,148.1,61.5,148.1C5738.5,5010,5678.8,4946.5,5609.6,4871.5z"/><path d="M4370.9,3775.2c-230.8-336.6-321.2-567.4-321.2-813.6c1.9-202,48.1-327,213.5-569.3c338.5-494.3,382.7-600.1,367.4-890.5c-7.7-117.3-26.9-221.2-59.6-313.5c-26.9-76.9-44.2-140.4-42.3-140.4c3.8,0,55.8,73.1,115.4,163.5c223.1,334.7,286.6,598.2,202,825.1c-25,61.6-115.4,217.3-202,346.2c-86.5,128.9-180.8,278.9-209.6,332.7c-140.4,278.9-142.3,623.2-5.8,1050.1c26.9,80.8,46.2,148.1,42.3,148.1C4469,3913.7,4422.9,3850.2,4370.9,3775.2z"/><path d="M4336.3,776.7c-1094.4-51.9-1992.6-236.6-2306.1-475.1c-51.9-38.5-115.4-109.6-142.3-157.7c-44.2-82.7-46.2-96.2-34.6-336.6c23.1-438.5,84.6-794.3,207.7-1163.6c250-763.6,742.4-1421.4,1390.6-1863.7c105.8-73.1,236.6-175,290.4-227c230.8-225,634.7-332.7,1257.9-332.7c623.2,0,1029,107.7,1257.9,332.7c53.9,53.9,159.6,136.6,232.7,186.6c219.3,146.2,353.9,257.7,567.4,469.3l202,198.1l238.5,71.2c482.8,144.2,957.8,350,1252.1,546.2c288.5,192.3,505.8,430.8,598.2,657.8c63.5,161.6,61.6,359.7-9.6,515.4c-67.3,144.3-228.9,303.9-380.8,375.1c-200,92.3-290.4,103.9-727,84.6l-86.5-3.9v223.1c0,207.7-3.8,227-51.9,300.1c-211.6,319.3-1125.2,538.5-2506.1,602C5113.4,799.8,4819.1,799.8,4336.3,776.7z M5625,605.5c1163.6-57.7,2027.2-236.6,2273.4-471.2c101.9-98.1,105.8-153.9,23.1-250C7733-329.2,7042.5-500.4,6000-590.8c-365.4-30.8-1634.9-30.8-2000.3,0c-1042.5,90.4-1733,261.6-1921.4,475.1c-73.1,82.7-75,142.3-9.6,219.3C2361,451.6,4011.3,684.4,5625,605.5z M8758.1-667.8c111.6-34.6,252-175,280.8-284.7c51.9-192.3-19.2-386.6-209.7-578.9c-205.8-205.8-509.7-359.7-925.1-471.2c-100-26.9-198.1-53.9-215.4-57.7c-51.9-15.4-42.3,19.2,59.6,230.8c109.6,227,173.1,398.1,242.3,634.7c42.3,148.1,63.5,188.5,155.8,292.3c57.7,67.3,130.8,140.4,161.6,161.6C8435-650.4,8606.2-623.5,8758.1-667.8z"/><path d="M1672.5-1617.9c-269.3-90.4-673.2-288.5-829-409.7c-155.8-117.3-250-228.9-317.4-375.1c-44.2-96.2-50-128.8-42.3-257.7c9.6-198.1,63.5-305.8,236.6-475.1c234.7-230.8,1157.9-759.7,1779.1-1019.4c69.2-28.8,242.3-105.8,386.6-173.1c453.9-211.6,871.3-338.5,1373.3-417.4c386.6-59.6,1094.4-59.6,1481,0c500.1,78.9,923.2,207.7,1386.7,423.1c136.6,63.5,334.7,152,440.4,198.1c265.4,113.5,809.7,392.4,1029,525.1c100,61.5,263.5,159.6,363.5,221.2c257.7,153.9,407.7,298.1,494.3,473.1c67.3,134.6,69.2,150,61.5,292.3c-13.5,225-119.2,403.9-332.7,565.5c-109.6,82.7-134.6,82.7-207.7,1.9c-32.7-36.6-32.7-40.4,59.6-107.7c352-257.7,407.8-555.8,153.9-830.9c-400.1-434.7-1519.4-767.4-3054.3-905.9c-527-46.2-1742.6-46.2-2269.6,0c-1534.8,138.5-2652.3,471.2-3054.3,905.9c-392.4,425.1-48.1,869.3,934.7,1205.9c128.9,44.3,234.7,88.5,234.7,98.1c0,36.5-59.6,130.8-82.7,130.8C1886-1548.7,1784-1579.4,1672.5-1617.9z"/></g></g>
</svg>