<svg
xmlns="http://www.w3.org/2000/svg"
width="149"
height="30"
viewBox="0 0 149 30"
>
<defs>
    <clipPath id="59z0a">
    <path d="M0 28.58h148.558V0H0z"></path>
    </clipPath>
</defs>
<g>
    <g>
    <g>
        <g>
        <path
            fill="#fefefe"
            d="M12.383 13.606l-3.723-2.81c-1.416-1.06-2.225-1.874-2.225-3.261 0-1.018.728-1.793 1.86-1.793 1.337 0 2.105 1.061 2.105 2.365V9.45h5.91V8.188c0-4.768-3.115-8.026-7.973-8.026C3.883.162.04 3.053.04 8.065c0 2.975 1.538 5.297 4.209 7.17l3.926 2.772c1.296.937 1.862 1.67 1.862 2.77 0 .978-.688 2.16-1.82 2.16-1.458 0-2.309-1.14-2.309-2.445v-1.384H0v1.629c0 4.645 3.56 7.781 8.255 7.781 4.655 0 8.378-3.055 8.378-7.986 0-2.892-1.699-5.01-4.25-6.926"
        ></path>
        </g>
        <g>
        <path
            fill="#fefefe"
            d="M28.452 20.204c0 1.468-.525 2.73-1.983 2.73-1.499 0-1.983-1.262-1.983-2.73V.484h-6.354v20.373c0 4.765 3.56 7.66 8.337 7.66 4.98 0 8.337-2.814 8.337-7.66V.485h-6.354z"
        ></path>
        </g>
        <g></g>
        <g clip-path="url(#59z0a)">
        <path
            fill="#fefefe"
            d="M36.837 28.19h6.355V.486h-6.355z"
        ></path>
        </g>
        <g clip-path="url(#59z0a)">
        <path
            fill="#fefefe"
            d="M44.723 6.108h5.504v22.083h6.395V6.108h5.545V.485H44.723z"
        ></path>
        </g>
        <g clip-path="url(#59z0a)">
        <path
            fill="#fefefe"
            d="M63.68 28.19h14.896v-5.582h-8.541v-6.272h5.59v-5.582h-5.59V6.108h8.54V.485H63.68z"
        ></path>
        </g>
        <g clip-path="url(#59z0a)">
        <path
            fill="#fefefe"
            d="M102.888 11.656h-.502l-.023.07c-.688 1.963-3.065 3.232-6.059 3.232h-.103v5.83h-9.038L102.26.86l.02-.028v-.51h-7.502l-8.335 20.548v.452H96.2v1.486c0 4.793-.062 4.906-.866 4.906H93.69v.538h11.586v-.538h-1.523c-.804 0-.866-.113-.866-4.906v-1.486h4.01v-.535h-4.01z"
        ></path>
        </g>
        <g clip-path="url(#59z0a)">
        <path
            fill="#fefefe"
            d="M119.445 13.962c3.604-.57 7.535-2.239 7.535-6.804 0-1.943-.839-3.717-2.361-4.998C122.941.748 120.529 0 117.644 0c-2.33 0-4.477.644-6.05 1.81-1.497 1.11-2.356 2.63-2.356 4.167 0 1.717 1.192 2.917 2.9 2.917 1.703 0 2.938-1.262 2.938-3 0-1.595-1.281-2.797-2.98-2.797-.447 0-.857.138-1.187.3 1.114-1.606 3.33-2.74 5.44-2.74 1.57 0 3.66.675 3.66 6.501 0 5.527-1.247 6.538-3.702 6.538h-3.019v.577h3.14c1.633 0 2.538.362 3.123 1.253.653.99.944 2.72.944 5.612 0 5.631-1.77 6.785-4.43 6.785-2.325 0-4.556-1.02-5.706-2.57a2.68 2.68 0 0 0 1.13.253c1.726 0 2.98-1.177 2.98-2.797 0-1.735-1.236-2.997-2.939-2.997-1.706 0-2.898 1.232-2.898 2.997 0 1.491.872 2.961 2.394 4.036 1.584 1.12 3.732 1.736 6.051 1.736 6.336 0 10.43-2.922 10.43-7.443 0-4.862-4.215-6.602-8.062-7.176"
        ></path>
        </g>
        <g clip-path="url(#59z0a)">
        <path
            fill="#fefefe"
            d="M130.043.323v10.81h.525l.006-.098c.19-2.21.514-3.403 1.114-4.119.576-.683 1.454-.962 3.036-.962h9.98L131.92 27.768l-.016.024v.461h8.855l-.023-.125c-.28-1.548-.566-3.482-.566-6.094 0-4.223 1.355-8.972 3.714-13.034l4.669-8.176v-.5z"
        ></path>
        </g>
    </g>
    </g>
</g>
</svg>